<?xml version="1.0" encoding="UTF-8" standalone="no"?>
<svg
   xmlns:dc="http://purl.org/dc/elements/1.1/"
   xmlns:cc="http://creativecommons.org/ns#"
   xmlns:rdf="http://www.w3.org/1999/02/22-rdf-syntax-ns#"
   xmlns:svg="http://www.w3.org/2000/svg"
   xmlns="http://www.w3.org/2000/svg"
   xml:space="preserve"
   style="enable-background:new 0 0 512 512;"
   viewBox="0 0 512 512"
   y="0px"
   x="0px"
   id="Layer_1"
   version="1.1"><metadata
   id="metadata115"><rdf:RDF><cc:Work
       rdf:about=""><dc:format>image/svg+xml</dc:format><dc:type
         rdf:resource="http://purl.org/dc/dcmitype/StillImage" /><dc:title></dc:title></cc:Work></rdf:RDF></metadata><defs
   id="defs113">
	

		
	</defs>
<path
   style="fill:#00384e;fill-opacity:1"
   id="path2"
   d="m 486.881,238.363 c 13.851,0 25.119,-11.268 25.119,-25.119 V 59.324 C 512,45.473 500.732,34.205 486.881,34.205 H 238.363 V 25.119 C 238.363,11.268 227.095,0 213.244,0 H 59.324 C 45.473,0 34.205,11.268 34.205,25.119 v 9.086 H 25.119 C 11.268,34.205 0,45.473 0,59.324 v 153.921 c 0,13.851 11.268,25.119 25.119,25.119 h 103.148 v 35.273 H 59.324 c -13.851,0 -25.119,11.268 -25.119,25.119 v 9.086 H 25.119 C 11.268,307.841 0,319.11 0,332.96 V 486.881 C 0,500.732 11.268,512 25.119,512 H 486.881 C 500.732,512 512,500.732 512,486.881 V 332.96 c 0,-13.851 -11.268,-25.119 -25.119,-25.119 H 238.363 v -9.086 c 0,-13.851 -11.268,-25.119 -25.119,-25.119 H 144.3 V 238.363 Z M 238.363,179.04 V 50.238 h 248.518 c 5.01,0 9.086,4.076 9.086,9.086 v 153.921 c 0,5.01 -4.076,9.086 -9.086,9.086 H 144.301 V 204.16 h 68.944 c 13.85,-0.001 25.118,-11.27 25.118,-25.12 z M 25.119,222.33 c -5.01,0 -9.086,-4.076 -9.086,-9.086 V 59.324 c 0,-5.01 4.076,-9.086 9.086,-9.086 h 9.086 V 179.04 c 0,13.851 11.268,25.119 25.119,25.119 h 68.944 V 222.33 Z M 238.363,452.676 V 323.875 h 248.518 c 5.01,0 9.086,4.076 9.086,9.086 v 153.921 c 0,5.01 -4.076,9.086 -9.086,9.086 H 25.119 c -5.01,0 -9.086,-4.076 -9.086,-9.086 V 332.96 c 0,-5.01 4.076,-9.086 9.086,-9.086 h 9.086 v 128.802 c 0,13.851 11.268,25.119 25.119,25.119 h 153.921 c 13.85,0 25.118,-11.268 25.118,-25.119 z M 213.244,289.67 c 5.01,0 9.086,4.076 9.086,9.086 v 153.921 c 0,5.01 -4.076,9.086 -9.086,9.086 H 59.324 c -5.01,0 -9.086,-4.076 -9.086,-9.086 V 298.756 c 0,-5.01 4.076,-9.086 9.086,-9.086 z M 59.324,188.125 c -5.01,0 -9.086,-4.076 -9.086,-9.086 V 25.119 c 0,-5.01 4.076,-9.086 9.086,-9.086 h 153.921 c 5.01,0 9.086,4.076 9.086,9.086 V 179.04 c 0,5.01 -4.076,9.086 -9.086,9.086 H 59.324 Z" />
<g
   style="fill:#cb4f24;fill-opacity:1"
   id="g12">
	<g
   style="fill:#cb4f24;fill-opacity:1"
   id="g10">
		<path
   style="fill:#cb4f24;fill-opacity:1"
   id="path8"
   d="M187.056,93.528c0-27.995-22.777-50.772-50.772-50.772c-27.995,0-50.772,22.777-50.772,50.772v17.102    c0,27.995,22.777,50.772,50.772,50.772c11.111,0,21.392-3.597,29.761-9.675l7.326,7.326c1.565,1.565,3.617,2.348,5.668,2.348    s4.103-0.782,5.668-2.348c3.131-3.131,3.131-8.207,0-11.337l-7.326-7.326c6.078-8.369,9.675-18.65,9.675-29.761V93.528z     M171.023,110.63c0,6.68-1.899,12.921-5.18,18.222l-6.789-6.789c-3.131-3.131-8.207-3.131-11.337,0    c-3.131,3.131-3.131,8.207,0,11.337l6.789,6.789c-5.302,3.28-11.543,5.18-18.222,5.18c-19.155,0-34.739-15.584-34.739-34.739    V93.528c0-19.155,15.584-34.739,34.739-34.739c19.155,0,34.739,15.584,34.739,34.739V110.63z" />
	</g>
</g>
<g
   style="fill:#cb4f24;fill-opacity:1"
   id="g18">
	<g
   style="fill:#cb4f24;fill-opacity:1"
   id="g16">
		<path
   style="fill:#cb4f24;fill-opacity:1"
   id="path14"
   d="M186.818,425.079l-23.225-92.899c-2.325-9.295-10.64-15.788-20.222-15.788h-14.175c-9.582,0-17.898,6.492-20.22,15.789    L85.751,425.08c-1.074,4.295,1.538,8.646,5.833,9.721c4.293,1.076,8.647-1.537,9.722-5.833l4.896-19.581h60.167l4.896,19.581    c0.911,3.643,4.179,6.075,7.771,6.075c0.643,0,1.298-0.078,1.951-0.242C185.281,433.727,187.892,429.373,186.818,425.079z     M110.208,393.353l14.321-57.284c0.537-2.145,2.455-3.643,4.667-3.643h14.175c2.212,0,4.13,1.497,4.667,3.643l14.321,57.284    H110.208z" />
	</g>
</g>
<g
   style="fill:#cb4f24;fill-opacity:1"
   id="g24">
	<g
   style="fill:#cb4f24;fill-opacity:1"
   id="g22">
		<path
   style="fill:#cb4f24;fill-opacity:1"
   id="path20"
   d="M427.023,76.96H273.102c-4.427,0-8.017,3.589-8.017,8.017s3.589,8.017,8.017,8.017h153.921    c4.427,0,8.017-3.589,8.017-8.017S431.45,76.96,427.023,76.96z" />
	</g>
</g>
<g
   style="fill:#cb4f24;fill-opacity:1"
   id="g30">
	<g
   style="fill:#cb4f24;fill-opacity:1"
   id="g28">
		<path
   style="fill:#cb4f24;fill-opacity:1"
   id="path26"
   d="M461.228,145.37H273.102c-4.427,0-8.017,3.589-8.017,8.017s3.589,8.017,8.017,8.017h188.125    c4.427,0,8.017-3.589,8.017-8.017S465.655,145.37,461.228,145.37z" />
	</g>
</g>
<g
   style="fill:#cb4f24;fill-opacity:1"
   id="g36">
	<g
   style="fill:#cb4f24;fill-opacity:1"
   id="g34">
		<path
   style="fill:#cb4f24;fill-opacity:1"
   id="path32"
   d="M461.228,179.574H273.102c-4.427,0-8.017,3.589-8.017,8.017s3.589,8.017,8.017,8.017h188.125    c4.427,0,8.017-3.589,8.017-8.017S465.655,179.574,461.228,179.574z" />
	</g>
</g>
<g
   style="fill:#cb4f24;fill-opacity:1"
   id="g42">
	<g
   style="fill:#cb4f24;fill-opacity:1"
   id="g40">
		<path
   style="fill:#cb4f24;fill-opacity:1"
   id="path38"
   d="M307.307,111.165h-34.205c-4.427,0-8.017,3.589-8.017,8.017s3.589,8.017,8.017,8.017h34.205    c4.427,0,8.017-3.589,8.017-8.017S311.734,111.165,307.307,111.165z" />
	</g>
</g>
<g
   style="fill:#cb4f24;fill-opacity:1"
   id="g48">
	<g
   style="fill:#cb4f24;fill-opacity:1"
   id="g46">
		<path
   style="fill:#cb4f24;fill-opacity:1"
   id="path44"
   d="M461.228,111.165H341.511c-4.427,0-8.017,3.589-8.017,8.017s3.589,8.017,8.017,8.017h119.716    c4.427,0,8.017-3.589,8.017-8.017S465.655,111.165,461.228,111.165z" />
	</g>
</g>
<g
   style="fill:#cb4f24;fill-opacity:1"
   id="g54">
	<g
   style="fill:#cb4f24;fill-opacity:1"
   id="g52">
		<path
   style="fill:#cb4f24;fill-opacity:1"
   id="path50"
   d="M427.023,350.597H273.102c-4.427,0-8.017,3.589-8.017,8.017s3.589,8.017,8.017,8.017h153.921    c4.427,0,8.017-3.589,8.017-8.017S431.45,350.597,427.023,350.597z" />
	</g>
</g>
<g
   style="fill:#cb4f24;fill-opacity:1"
   id="g60">
	<g
   style="fill:#cb4f24;fill-opacity:1"
   id="g58">
		<path
   style="fill:#cb4f24;fill-opacity:1"
   id="path56"
   d="M461.228,419.006H273.102c-4.427,0-8.017,3.589-8.017,8.017c0,4.427,3.589,8.017,8.017,8.017h188.125    c4.427,0,8.017-3.589,8.017-8.017C469.244,422.596,465.655,419.006,461.228,419.006z" />
	</g>
</g>
<g
   style="fill:#cb4f24;fill-opacity:1"
   id="g66">
	<g
   style="fill:#cb4f24;fill-opacity:1"
   id="g64">
		<path
   style="fill:#cb4f24;fill-opacity:1"
   id="path62"
   d="M461.228,453.211H273.102c-4.427,0-8.017,3.589-8.017,8.017c0,4.427,3.589,8.017,8.017,8.017h188.125    c4.427,0,8.017-3.589,8.017-8.017C469.244,456.8,465.655,453.211,461.228,453.211z" />
	</g>
</g>
<g
   style="fill:#cb4f24;fill-opacity:1"
   id="g72">
	<g
   style="fill:#cb4f24;fill-opacity:1"
   id="g70">
		<path
   style="fill:#cb4f24;fill-opacity:1"
   id="path68"
   d="M307.307,384.802h-34.205c-4.427,0-8.017,3.589-8.017,8.017c0,4.427,3.589,8.017,8.017,8.017h34.205    c4.427,0,8.017-3.589,8.017-8.017C315.324,388.391,311.734,384.802,307.307,384.802z" />
	</g>
</g>
<g
   style="fill:#cb4f24;fill-opacity:1"
   id="g78">
	<g
   style="fill:#cb4f24;fill-opacity:1"
   id="g76">
		<path
   style="fill:#cb4f24;fill-opacity:1"
   id="path74"
   d="M461.228,384.802H341.511c-4.427,0-8.017,3.589-8.017,8.017c0,4.427,3.589,8.017,8.017,8.017h119.716    c4.427,0,8.017-3.589,8.017-8.017C469.244,388.391,465.655,384.802,461.228,384.802z" />
	</g>
</g>
<g
   id="g80">
</g>
<g
   id="g82">
</g>
<g
   id="g84">
</g>
<g
   id="g86">
</g>
<g
   id="g88">
</g>
<g
   id="g90">
</g>
<g
   id="g92">
</g>
<g
   id="g94">
</g>
<g
   id="g96">
</g>
<g
   id="g98">
</g>
<g
   id="g100">
</g>
<g
   id="g102">
</g>
<g
   id="g104">
</g>
<g
   id="g106">
</g>
<g
   id="g108">
</g>
</svg>